<svg width="33" height="33" viewBox="0 0 33 33" fill="none" xmlns="http://www.w3.org/2000/svg">
<g id="Instagram">
<path id="Combined Shape" fill-rule="evenodd" clip-rule="evenodd" d="M16.4994 0C7.3978 0 0.0195312 7.37827 0.0195312 16.4798C0.0195312 25.5814 7.3978 32.9596 16.4994 32.9596C25.6009 32.9596 32.9792 25.5814 32.9792 16.4798C32.9792 7.37827 25.6009 0 16.4994 0ZM12.8759 7.74378C13.8134 7.70111 14.113 7.69067 16.5 7.69067H16.4973C18.885 7.69067 19.1835 7.70111 20.121 7.74378C21.0567 7.78662 21.6958 7.93476 22.2561 8.15211C22.8348 8.37642 23.3237 8.67673 23.8126 9.16563C24.3015 9.65417 24.6018 10.1445 24.827 10.7226C25.0431 11.2815 25.1914 11.9202 25.2353 12.8559C25.2775 13.7934 25.2884 14.093 25.2884 16.48C25.2884 18.867 25.2775 19.1659 25.2353 20.1034C25.1914 21.0387 25.0431 21.6776 24.827 22.2366C24.6018 22.8145 24.3015 23.3049 23.8126 23.7935C23.3242 24.2824 22.8346 24.5834 22.2567 24.8079C21.6974 25.0252 21.058 25.1734 20.1223 25.2162C19.1848 25.2589 18.8861 25.2693 16.4989 25.2693C14.1121 25.2693 13.8127 25.2589 12.8752 25.2162C11.9396 25.1734 11.3008 25.0252 10.7415 24.8079C10.1638 24.5834 9.67346 24.2824 9.1851 23.7935C8.69638 23.3049 8.39608 22.8145 8.1714 22.2365C7.95423 21.6776 7.80609 21.0389 7.76306 20.1032C7.72058 19.1657 7.70996 18.867 7.70996 16.48C7.70996 14.093 7.72095 13.7932 7.76288 12.8557C7.805 11.9204 7.95332 11.2815 8.17122 10.7224C8.39644 10.1445 8.69675 9.65417 9.18565 9.16563C9.67419 8.67691 10.1646 8.37661 10.7426 8.15211C11.3015 7.93476 11.9402 7.78662 12.8759 7.74378Z" fill="#0052B9"/>
<path id="Combined Shape_2" fill-rule="evenodd" clip-rule="evenodd" d="M15.7119 9.27441C15.865 9.27417 16.0297 9.27425 16.2074 9.27433L16.5003 9.27441C18.8471 9.27441 19.1252 9.28284 20.052 9.32495C20.9089 9.36414 21.374 9.50733 21.6838 9.62764C22.094 9.78694 22.3864 9.97738 22.6939 10.285C23.0015 10.5926 23.192 10.8856 23.3516 11.2958C23.4719 11.6052 23.6153 12.0703 23.6543 12.9273C23.6964 13.8538 23.7056 14.1322 23.7056 16.4778C23.7056 18.8235 23.6964 19.1018 23.6543 20.0283C23.6151 20.8853 23.4719 21.3504 23.3516 21.6599C23.1923 22.07 23.0015 22.3621 22.6939 22.6695C22.3863 22.9772 22.0942 23.1676 21.6838 23.3269C21.3744 23.4478 20.9089 23.5906 20.052 23.6298C19.1254 23.6719 18.8471 23.681 16.5003 23.681C14.1534 23.681 13.8753 23.6719 12.9487 23.6298C12.0918 23.5902 11.6267 23.447 11.3167 23.3267C10.9065 23.1674 10.6135 22.977 10.3059 22.6694C9.99825 22.3617 9.80782 22.0695 9.64814 21.6591C9.52784 21.3497 9.38446 20.8846 9.34546 20.0276C9.30334 19.1011 9.29492 18.8227 9.29492 16.4756C9.29492 14.1285 9.30334 13.8516 9.34546 12.9251C9.38465 12.0681 9.52784 11.603 9.64814 11.2932C9.80745 10.883 9.99825 10.5901 10.3059 10.2824C10.6135 9.97481 10.9065 9.78438 11.3167 9.62471C11.6265 9.50385 12.0918 9.36103 12.9487 9.32166C13.7595 9.28503 14.0738 9.27405 15.7119 9.27222V9.27441ZM21.1924 10.7338C20.6101 10.7338 20.1377 11.2056 20.1377 11.7881C20.1377 12.3704 20.6101 12.8428 21.1924 12.8428C21.7747 12.8428 22.2471 12.3704 22.2471 11.7881C22.2471 11.2058 21.7747 10.7334 21.1924 10.7334V10.7338ZM11.9873 16.4798C11.9873 13.9871 14.0082 11.9662 16.5008 11.9661C18.9935 11.9661 21.0139 13.9871 21.0139 16.4798C21.0139 18.9724 18.9937 20.9925 16.501 20.9925C14.0083 20.9925 11.9873 18.9724 11.9873 16.4798Z" fill="#0052B9"/>
<path id="Shape" fill-rule="evenodd" clip-rule="evenodd" d="M16.5001 13.5503C18.1181 13.5503 19.4299 14.8619 19.4299 16.4801C19.4299 18.098 18.1181 19.4098 16.5001 19.4098C14.8819 19.4098 13.5703 18.098 13.5703 16.4801C13.5703 14.8619 14.8819 13.5503 16.5001 13.5503V13.5503Z" fill="#0052B9"/>
</g>
</svg>
