<svg width="33" height="33" viewBox="0 0 33 33" fill="none" xmlns="http://www.w3.org/2000/svg">
<g id="LinkedIN">
<path id="Combined Shape" fill-rule="evenodd" clip-rule="evenodd" d="M16.5208 0C7.41928 0 0.0410156 7.37827 0.0410156 16.4798C0.0410156 25.5814 7.41928 32.9596 16.5208 32.9596C25.6224 32.9596 33.0007 25.5814 33.0007 16.4798C33.0007 7.37827 25.6224 0 16.5208 0ZM7.95312 13.6494H11.6878V24.8706H7.95312V13.6494ZM11.933 10.1782C11.9087 9.07799 11.1219 8.23999 9.84432 8.23999C8.5667 8.23999 7.73145 9.07799 7.73145 10.1782C7.73145 11.2557 8.54202 12.1178 9.79584 12.1178H9.81971C11.1219 12.1178 11.933 11.2557 11.933 10.1782ZM20.8554 13.3857C23.313 13.3857 25.1554 14.9899 25.1554 18.4365L25.1552 24.8704H21.4207V18.8671C21.4207 17.3592 20.8803 16.3302 19.5283 16.3302C18.4965 16.3302 17.8819 17.0239 17.612 17.6939C17.5133 17.934 17.489 18.2685 17.489 18.6039V24.8707H13.7539C13.7539 24.8707 13.8031 14.7025 13.7539 13.6495H17.489V15.2389C17.9847 14.4749 18.8725 13.3857 20.8554 13.3857Z" fill="#0052B9"/>
</g>
</svg>
