<svg width="22" height="22" viewBox="0 0 22 22" fill="none" xmlns="http://www.w3.org/2000/svg">
<path fill-rule="evenodd" clip-rule="evenodd" d="M11 0C4.92487 0 0 4.92487 0 11C0 17.0751 4.92487 22 11 22C17.0751 22 22 17.0751 22 11C22 4.92487 17.0751 0 11 0ZM20.4751 10.5001H17.0001C16.8501 7.21512 15.4551 3.85512 13.1201 1.74512C17.2502 2.69611 20.2508 6.26788 20.4751 10.5001ZM10 2.55499V10.5H6.5C6.645 7.36499 7.88 4.30499 10 2.55499ZM10 12V19.365C8.025 17.625 6.785 14.8 6.5 12H10ZM11.5 19.595V12H15.5C15.17 14.845 13.695 17.845 11.5 19.595ZM11.5 10.5V2.34003C13.86 4.08503 15.335 7.34003 15.5 10.5H11.5ZM8.57539 1.82495C6.38539 3.90495 5.13539 7.17495 5.00039 10.5H1.52539C1.7454 6.38537 4.59275 2.88172 8.57539 1.82495ZM1.57469 12H5.01969C5.29969 15.06 6.61469 18.175 8.73469 20.21C4.85232 19.2566 1.98219 15.9748 1.55469 12H1.57469ZM13.0249 20.285C15.3075 18.0916 16.7269 15.1516 17.0249 12H20.5249C20.0649 16.0933 17.0347 19.4318 13.0049 20.285H13.0249Z" fill="#0052B9"/>
</svg>
